<svg width="30" height="30" viewBox="0 0 30 30" fill="none" xmlns="http://www.w3.org/2000/svg">
<path d="M9.74028 5.87197C8.09937 6.5508 7.55143 7.102 6.87014 8.74396C6.19174 7.102 5.6409 6.5537 4 5.87197C5.6409 5.19314 6.18885 4.64196 6.87014 3C7.54853 4.64196 8.09937 5.19024 9.74028 5.87197Z" fill="url(#paint0_linear_2962_73604)"/>
<path d="M16.6318 7.28906C19.1792 7.28912 21.6225 8.30125 23.4238 10.1025C25.225 11.9039 26.2373 14.3472 26.2373 16.8945C26.2373 19.4419 25.2251 21.8852 23.4238 23.6865C21.6225 25.4878 19.1792 26.4999 16.6318 26.5C14.0845 26.5 11.6412 25.4877 9.83984 23.6865C8.03856 21.8852 7.02642 19.4419 7.02637 16.8945C7.02637 14.3471 8.03851 11.9039 9.83984 10.1025C11.6412 8.3012 14.0844 7.28906 16.6318 7.28906ZM16.6318 17.6572C15.3268 17.657 14.0487 18.0317 12.9502 18.7363C11.8518 19.441 10.9785 20.4466 10.4346 21.6328L10.3008 21.9238L10.5098 22.167C11.2675 23.0485 12.207 23.7558 13.2637 24.2402C14.32 24.7245 15.4689 24.9737 16.6309 24.9727L16.6318 24.9736V24.9727C17.7939 24.9738 18.9426 24.7245 19.999 24.2402C21.0556 23.7558 21.9952 23.0484 22.7529 22.167L22.9619 21.9238L22.8281 21.6328C22.2842 20.4465 21.411 19.441 20.3125 18.7363C19.2141 18.0318 17.9367 17.657 16.6318 17.6572ZM16.6318 10.0781C15.8292 10.0781 15.0588 10.3973 14.4912 10.9648C13.9239 11.5323 13.6056 12.3021 13.6055 13.1045C13.6055 13.9071 13.9237 14.6776 14.4912 15.2451C15.0588 15.8127 15.8292 16.1309 16.6318 16.1309C17.4343 16.1308 18.204 15.8125 18.7715 15.2451C19.339 14.6776 19.6582 13.9071 19.6582 13.1045C19.6581 12.302 19.3389 11.5323 18.7715 10.9648C18.204 10.3974 17.4344 10.0782 16.6318 10.0781Z" stroke="url(#paint1_linear_2962_73604)"/>
<defs>
<linearGradient id="paint0_linear_2962_73604" x1="6.87014" y1="3" x2="6.87014" y2="8.74396" gradientUnits="userSpaceOnUse">
<stop offset="0.336538" stop-color="white"/>
<stop offset="1" stop-color="#DCCDDF"/>
</linearGradient>
<linearGradient id="paint1_linear_2962_73604" x1="16.6316" y1="6.78906" x2="16.6316" y2="26.9996" gradientUnits="userSpaceOnUse">
<stop offset="0.8" stop-color="white"/>
<stop offset="1" stop-color="#DCCDDF"/>
</linearGradient>
</defs>
</svg>
